<?xml version="1.0" encoding="utf-8"?>
<!-- Generator: Adobe Illustrator 27.5.0, SVG Export Plug-In . SVG Version: 6.00 Build 0)  -->
<svg version="1.1" id="Слой_1" xmlns="http://www.w3.org/2000/svg" xmlns:xlink="http://www.w3.org/1999/xlink" x="0px" y="0px"
	 viewBox="0 0 2300 2000" style="enable-background:new 0 0 2300 2000;" xml:space="preserve">
<rect style="fill:#EBF3FA;" width="2300" height="2000"/>
<g>
	<path style="fill:#FFB27D;" d="M1344.512,991.906c0,0-95.745,191.539-193.001,323.757
		c-38.697,52.623-77.636,95.842-110.869,113.866c-32.531,17.638-60.07,45.044-82.858,75.411
		c-59.019,78.627-86.255,177.068-86.255,177.068l-248.696-376.247c0,0,8.486-367.785,38.347-429.306
		c43.521-89.652,64.543-270.794,81.262-306.856c12.403-26.753,47.824-164.943,51.221-175.098
		c1.475-4.376,13.262-11.085,28.566-11.073c12.283,0,33.136,11.871,38.395,36.267c26.596,123.308-5.416,204.643-5.053,208.257
		c9.381,94.766-18.823,165.112,0.955,183.742c0.737,0.689,2.103,0.362,4.038-0.871c34.285-22.014,247.076-332.243,273.285-338.94
		C1161.532,464.824,1344.512,991.906,1344.512,991.906z"/>
	<path style="fill:#F99746;" d="M946.348,1607.547c0,0-3.387,167.197-13.083,392.385H305.951
		c143.393-305.78,268.055-563.146,268.055-563.146S931.191,1447.695,946.348,1607.547z"/>
	<path style="fill:#FFB27D;" d="M1561.949,343.671l-77.016,112.902l-75.572,110.797c-4.607,5.56-9.941,7.493-15.713,6.936
		c-18.135-1.721-40.572-27.878-58.06-42.359l-1.773-1.456c-23.06-19.075-26.316-53.545-7.241-76.592l115.51-139.628v-0.013
		l34.259-41.407c19.075-23.06,53.545-26.316,76.592-7.241l1.773,1.456C1577.768,286.142,1581.024,320.612,1561.949,343.671z"/>
	<path style="fill:#EFA26F;" d="M1484.934,456.573l-75.572,110.797c-4.607,5.56-9.941,7.493-15.713,6.936l48.436-260.036
		C1442.189,315.727,1450.424,432.402,1484.934,456.573z"/>
	<path style="fill:#EFA26F;" d="M1151.511,1315.663c-38.697,52.623-77.636,95.842-110.869,113.866
		c-32.531,17.638-60.07,45.044-82.858,75.411c-26.211-12.218-56.089-26.554-85.294-40.748
		c-35.563-17.284-36.927-67.781-2.095-86.494c0.34-0.183,0.674-0.368,1-0.555c32.641-18.678,66.087-84.623,66.087-84.623
		L1151.511,1315.663z"/>
	<path style="fill:#FFC197;" d="M791.931,400.224l-20.15,81.352c0,0,17.615,7.206,28.928,1.611S821.252,404.603,791.931,400.224z"/>
	<g>
		<path style="fill:#2B478B;" d="M1371.421,1354.104H938.119c-42.621,0-77.492-34.872-77.492-77.492V324.188
			c0-42.621,34.871-77.492,77.492-77.492h433.302c42.62,0,77.492,34.872,77.492,77.492v952.425
			C1448.913,1319.232,1414.041,1354.104,1371.421,1354.104z"/>
		<g>
			<path style="fill:#C0D8FB;" d="M1419.758,331.523v930.348c0,31.563-25.64,57.379-56.961,57.379H946.74
				c-31.322,0-56.951-25.816-56.951-57.379V331.523c0-31.563,25.629-57.379,56.951-57.379h416.057
				C1394.118,274.144,1419.758,299.96,1419.758,331.523z"/>
			<path style="fill:#CBE1FD;" d="M1362.797,274.144L951.887,1319.25h-5.147c-31.322,0-56.951-25.816-56.951-57.379V331.523
				c0-31.563,25.629-57.379,56.951-57.379H1362.797z"/>
		</g>
		<path style="fill:#2B478B;" d="M1241.719,308.742h-173.89c-14.165,0-25.753-11.589-25.753-25.753v-4.049
			c0-14.165,11.589-25.754,25.753-25.754h173.89c14.164,0,25.753,11.589,25.753,25.754v4.049
			C1267.472,297.153,1255.883,308.742,1241.719,308.742z"/>
	</g>
	<g>
		<path style="fill:#FFB27D;" d="M1523.611,770.029l-11.485,4.364l-77.229,29.349c-1.81,0.688-3.642,1.275-5.474,1.735
			c-25.573,6.647-52.782-6.985-62.371-32.22l-1.132-2.966c-10.276-27.044,3.439-57.581,30.484-67.857l71.999-27.357l5.23-1.992
			l11.485-4.365c27.044-10.275,57.568,3.441,67.844,30.486l1.133,2.966C1564.371,729.217,1550.655,759.753,1523.611,770.029z"/>
		<path style="fill:#FFD3B6;" d="M1460.895,771.801c-12.889,4.884-36.224,13.552-48.703,15.345
			c-3.529,0.508-10.037-1.412-16.106-8.061c-3.643-3.981-7.129-9.655-9.713-17.519c-1.214-3.699-2.216-7.383-2.64-11.18
			c-0.479-4.447-0.353-8.894,0.424-13.298c0.706-3.967,3.416-7.581,7.368-9.486c0.015-0.014,0.043-0.014,0.058-0.028
			c13.27-6.338,31.154-14.06,46.839-18.366c10.841-2.993,21.81,1.793,25.24,11.279l1.623,4.433l8.287,22.7
			C1477.001,757.049,1471.425,767.834,1460.895,771.801z"/>
		<path style="fill:#FFC197;" d="M1460.895,771.801c-12.889,4.884-36.224,13.552-48.703,15.345
			c-3.529,0.508-10.037-1.412-16.106-8.061c-0.649-1.51-1.242-3.106-1.808-4.814c-1.214-3.699-2.216-7.383-2.64-11.181
			c-0.479-4.446-0.353-8.893,0.424-13.298c0.706-3.967,3.416-7.581,7.368-9.486c0.015-0.014,0.043-0.014,0.057-0.028
			c13.27-6.338,31.156-14.06,46.84-18.366c6.945-1.92,13.933-0.649,18.958,3.007l8.287,22.7
			C1477.001,757.049,1471.425,767.834,1460.895,771.801z"/>
	</g>
	<g>
		<path style="fill:#FFB27D;" d="M1488.566,878.608l-59.556,16.214c-18.097,4.927-36.935-5.849-41.861-23.946l-1.835-6.741
			c-4.928-18.097,5.848-36.935,23.945-41.861l59.556-16.214c18.098-4.927,36.935,5.849,41.861,23.945l1.836,6.741
			C1517.439,854.843,1506.664,873.681,1488.566,878.608z"/>
		<path style="fill:#FFD3B6;" d="M1456.363,875.685c-10.941,2.922-30.718,8.075-41.08,8.64c-3.77,0.212-11.321-2.979-16.248-12.889
			c-1.214-2.4-2.244-5.181-3.049-8.399c-0.721-2.922-1.271-5.816-1.327-8.752c-0.071-3.459,0.367-6.86,1.327-10.192
			c0.86-3.007,3.359-5.604,6.733-6.804c0.028-0.014,0.042-0.014,0.057-0.028c11.35-4.009,26.595-8.795,39.78-11.096
			c9.105-1.595,17.745,2.781,19.877,10.291l1.538,5.364l4.588,16.107C1470.677,865.38,1465.299,873.314,1456.363,875.685z"/>
		<path style="fill:#FFC197;" d="M1456.363,875.685c-10.941,2.922-30.718,8.075-41.08,8.64c-3.77,0.212-11.321-2.979-16.248-12.889
			c-0.664-2.725-1.144-5.449-1.2-8.216c-0.07-3.444,0.367-6.861,1.327-10.192c0.861-2.993,3.359-5.604,6.733-6.804
			c0.028-0.014,0.043-0.014,0.057-0.028c11.35-4.01,26.596-8.795,39.781-11.082c7.538-1.327,14.766,1.454,18.238,6.706l4.588,16.107
			C1470.677,865.38,1465.299,873.314,1456.363,875.685z"/>
	</g>
	<path style="fill:#ED7D2B;" d="M512.935,1563.643c0,0,122.586,117.408,205.225,162.74l62.568-44.379v65.467
		c0,0,123.051,21.761,161.865,0v-178.531l-345.618-173.26L512.935,1563.643z"/>
	<path style="fill:#DCEAFF;" d="M968.701,1733.264c-47.609,9.763-150.223-27.637-150.223-27.637l16.55-159.861l-115.955,132.798
		c-59.01-21.959-151.3-79.264-206.135-114.923c-27.3-17.763-45.321-30.15-45.321-30.15
		c77.378-124.516,155.216-240.976,155.216-240.976c22.845,45.702,76.918,85.39,135.535,117.133
		c97.407,52.76,207.358,83.583,207.358,83.583C965.694,1588.236,968.701,1733.264,968.701,1733.264z"/>
	<g>
		<path style="fill:#FFB27D;" d="M1521.732,655.889c-0.424,0.155-0.848,0.296-1.285,0.438l-78.079,20.045
			c-34.332,8.823-69.835-9.754-78.898-41.277l-4.645-16.15c-8.71-30.266,10.009-61.916,41.913-72.178l25.777-6.621l52.302-13.425
			c34.332-8.823,69.835,9.755,78.897,41.277l4.645,16.149C1570.942,614.005,1552.845,645.188,1521.732,655.889z"/>
		<path style="fill:#FFD3B6;" d="M1485.951,634.093l-37.932,17.095c-0.056,0.014-0.127,0.028-0.239,0.057
			c-1.524,0.41-3.063,0.72-4.588,0.946c-0.636,0.099-1.285,0.169-1.921,0.24c-0.268,0.028-0.536,0.028-0.804,0.014
			c-4.179-0.141-7.045-4.574-5.237-8.526c3.585-7.807,4.56-16.841,2.146-25.721l-0.903-3.303c0-0.028-0.015-0.071-0.028-0.099
			l-2.937-10.771c-2.329-8.583-7.284-15.768-13.75-20.963c-0.775-0.635-1.581-1.228-2.399-1.793
			c-7.496-5.195-5.59-16.954,3.19-19.397c0.085-0.028,0.155-0.042,0.24-0.07l41.63-6.296c10.291-2.795,20.201,5.125,23.011,15.416
			l3.345,12.268l7.115,26.158C1498.685,619.651,1496.242,631.298,1485.951,634.093z"/>
		<path style="fill:#FFC197;" d="M1485.951,634.093l-37.932,17.095c-0.056,0.014-0.127,0.028-0.239,0.057
			c-0.89,0.169-3.671,0.635-7.313,1.2c-4.179-0.141-7.045-4.574-5.237-8.526c3.585-7.807,4.56-16.841,2.146-25.721l-0.903-3.303
			c0-0.028-0.015-0.071-0.028-0.099l-2.937-10.771c-2.329-8.583-7.284-15.768-13.75-20.963c1.342-1.962,3.347-3.515,5.972-4.249
			c0.071-0.028,0.155-0.042,0.24-0.07l41.63-6.296c8.668-2.357,17.053,2.894,21.175,10.743l7.115,26.158
			C1498.685,619.651,1496.242,631.298,1485.951,634.093z"/>
	</g>
	<path style="fill:#EFA26F;" d="M860.624,1062.022c0,0-17.034-148.695-32.749-177.685c-15.716-29.001-29.014-87.065-4.835-130.211
		c24.178-43.158,32.532-126.173,32.532-126.173c9.381,94.766-18.823,165.112,0.955,183.742c0.737,0.689,2.103,0.362,4.038-0.871
		L860.624,1062.022z"/>
	<path style="fill:#699DEE;" d="M649.523,819.84h591.559c20.536,0,37.184-16.648,37.184-37.184V545.736
		c0-20.536-16.647-37.184-37.184-37.184H649.523c-20.536,0-37.184,16.648-37.184,37.184v236.921
		C612.339,803.192,628.987,819.84,649.523,819.84z"/>
	<g>
		<path style="fill:#9ABFF6;" d="M1245.228,469.13h-231.544c-17.178,0-31.104-13.926-31.104-31.105V394.11
			c0-17.178,13.926-31.104,31.104-31.104h231.544c17.179,0,31.104,13.926,31.104,31.104v43.915
			C1276.332,455.204,1262.406,469.13,1245.228,469.13z"/>
	</g>
	<g>
		<path style="fill:#9ABFF6;" d="M1235.074,1247.2H968.131c-20.571,0-37.247-16.676-37.247-37.246v-56.431
			c0-20.57,16.676-37.246,37.247-37.246h266.943c20.571,0,37.247,16.676,37.247,37.246v56.431
			C1272.321,1230.524,1255.646,1247.2,1235.074,1247.2z"/>
	</g>
	<g>
		<path style="fill:#F99746;" d="M1338.826,1062.022h-252.188c-24.646,0-44.625-19.979-44.625-44.624V918.72
			c0-24.646,19.979-44.625,44.625-44.625h252.188c24.646,0,44.624,19.979,44.624,44.625v98.679
			C1383.45,1042.043,1363.472,1062.022,1338.826,1062.022z"/>
	</g>
	<path style="fill:#FFB27D;" d="M2051.809,2000h-460.061c-22.06-14.79-136.63-92.939-184.04-151.2
		c-10.04-12.35-46.79-118.75-75.029-205.14c-17.63-53.96-31.95-100.141-34.37-110.73c-0.84-3.689-1.4-11-1.74-20.899v-0.101
		c-1.2-35.33,0.439-103.46,2.13-157.58l0.01-0.25l0.03-0.71c0.08-2.38,0.15-4.72,0.23-7.04v-0.08c0.01-0.229,0.01-0.47,0.02-0.699
		c0.311-9.4,0.61-18.26,0.89-26.32c0.71-20.14,1.311-35.29,1.561-41.22l0.1-2.761c0,0,0.011,0,0.021-0.01
		c0.729-0.41,22.859-12.22,52.439,9.09c7.141,5.15,13.74,17.59,19.76,33.82c3.851,10.36,7.461,22.26,10.82,34.8
		c12.92,48.23,22.19,105.891,27.141,121.33c7.979,24.95,102.039,134.67,107.92,141.49c0.09,0.12,0.189,0.229,0.279,0.34v-173.27
		l-71.01-190l-29.15-78l-14.649-39.2c0,0-22.47-36.891-41.32-81.271c-8.25-19.42-15.81-40.27-20.489-60.09
		c-1.12-4.72-2.07-9.39-2.83-13.96c0-0.01,0-0.01,0-0.02c-2.771-16.75-2.961-32.29,0.89-44.94c6.87-22.53,22.35-26.77,34.24-26.31
		c1.229,0.04,2.42,0.15,3.569,0.28c1.16,0.14,2.311,0.36,3.42,0.66c2.091,0.55,4.07,1.39,5.91,2.46c0.021,0,0.021,0.01,0.03,0.02
		c3.05,1.78,5.68,4.23,7.72,7.22c0,0,10.04,13.11,23.51,30.73c8.86,11.6,19.211,25.15,29.15,38.21
		c17.7,23.27,34.141,44.98,38.66,51.34c24.43,34.39,90.21,146.46,90.21,146.46l77,3.229c12.2,0.51,23.81,5.37,32.729,13.7
		c27.381,25.57,86.41,80.9,93.65,89.13c0,2.697,45.875,24.756,81.311,44.4c25.349,10.711,73.5,48.67,73.5,48.67
		c9.979,8.81,17.58,17.58,21.43,25.96c16.51,35.93,61.29,348.42,82.7,502.899C2046.988,1964.1,2051.458,1997.43,2051.809,2000z"/>
	<path style="fill:#EFA26F;" d="M1577.781,1186.445c0,0,71.333,116.44,80.773,121.686c9.441,5.245,46.157,12.588,50.354,0
		C1713.104,1295.543,1577.781,1186.445,1577.781,1186.445z"/>
	<path style="fill:#EFA26F;" d="M1936.328,1385.901c-0.121-0.106-0.238-0.214-0.359-0.321c0,0-48.151-37.959-73.5-48.67
		c-32.534-18.036-73.862-38.104-80.413-43.357c7.554,8.634,60.678,68.755,81.12,73.26
		C1881.128,1370.771,1921.901,1381.922,1936.328,1385.901z"/>
	<path style="fill:#EFA26F;" d="M1519.918,1616.132v-173.276c0,0,41.163,68.857,44.31,106.622
		C1567.375,1587.231,1547.129,1648.368,1519.918,1616.132z"/>
	<path style="fill:#FFD3B6;" d="M1370.567,980.292c-6.021-10.32-16.797-29.033-20.503-39.501c-1.049-2.96-0.916-8.881,2.723-15.192
		c2.177-3.785,5.609-7.71,10.8-11.211c2.442-1.646,4.914-3.107,7.58-4.087c3.124-1.134,6.366-1.745,9.702-1.79
		c3.007-0.034,6.145,1.717,8.286,4.816c0.013,0.01,0.019,0.034,0.031,0.044c7.147,10.413,16.187,24.582,22.329,37.406
		c4.259,8.862,2.914,19.093-3.288,23.587l-2.894,2.118l-14.823,10.821C1384.35,991.789,1375.471,988.729,1370.567,980.292z"/>
	<path style="fill:#FFC197;" d="M1370.567,980.292c-6.021-10.32-16.797-29.033-20.503-39.501c-1.049-2.96-0.916-8.881,2.723-15.192
		c0.967-0.805,2.007-1.574,3.134-2.337c2.441-1.646,4.914-3.107,7.579-4.087c3.125-1.134,6.367-1.745,9.703-1.789
		c3.007-0.034,6.145,1.717,8.286,4.816c0.013,0.01,0.019,0.035,0.031,0.044c7.147,10.413,16.187,24.582,22.329,37.405
		c2.73,5.677,3.16,11.907,1.484,16.832l-14.823,10.821C1384.35,991.789,1375.471,988.729,1370.567,980.292z"/>
	<g>
		<path style="fill:#DFEBFD;" d="M1772.326,536.172h-96.439c-25.371,0-46.129-20.758-46.129-46.129v-79.44
			c0-25.37,20.758-46.128,46.129-46.128h96.439c25.371,0,46.128,20.758,46.128,46.128v79.44
			C1818.454,515.415,1797.697,536.172,1772.326,536.172z"/>
		<g>
			<path style="fill:#F99746;" d="M1673.961,448.915c5.242,13.814,50.174,50.091,50.174,50.091s14.645-11.898,28.208-24.712
				c10.151-9.485,19.637-19.471,21.884-25.379c5.324-13.728-0.334-33.366-19.971-36.694c-19.553-3.33-30.121,17.142-30.121,17.142
				s-10.567-20.471-30.204-17.142c-3.411,0.583-6.407,1.664-8.986,3.163C1672.713,422.206,1669.634,437.601,1673.961,448.915z"/>
		</g>
	</g>
	<g>
		<path style="fill:#DFEBFD;" d="M221.449,983.336h288.916c23.03,0,41.874,18.843,41.874,41.875v126.752
			c0,21.154-17.308,38.462-38.462,38.462h-7.422l13.92,58.793l-87.391-58.793H218.955c-23.011,0-41.838-18.827-41.838-41.839
			v-120.918C177.117,1003.286,197.066,983.336,221.449,983.336z"/>
		<path style="fill:#CBE1FD;" d="M213.696,1075.341h301.25c4.103,0,7.46-3.357,7.46-7.46l0,0c0-4.104-3.357-7.461-7.46-7.461
			h-301.25c-4.102,0-7.46,3.357-7.46,7.461l0,0C206.236,1071.983,209.594,1075.341,213.696,1075.341z"/>
		<path style="fill:#CBE1FD;" d="M213.696,1108.734h301.25c4.103,0,7.46-3.357,7.46-7.461l0,0c0-4.103-3.357-7.46-7.46-7.46h-301.25
			c-4.102,0-7.46,3.357-7.46,7.46l0,0C206.236,1105.377,209.594,1108.734,213.696,1108.734z"/>
		<path style="fill:#CBE1FD;" d="M213.696,1142.127h301.25c4.103,0,7.46-3.357,7.46-7.46l0,0c0-4.104-3.357-7.46-7.46-7.46h-301.25
			c-4.102,0-7.46,3.356-7.46,7.46l0,0C206.236,1138.77,209.594,1142.127,213.696,1142.127z"/>
		<path style="fill:#CBE1FD;" d="M377.82,1023.475h127.889c4.885,0,8.881-3.996,8.881-8.881l0,0c0-4.885-3.996-8.881-8.881-8.881
			H377.82c-4.884,0-8.881,3.996-8.881,8.881l0,0C368.939,1019.479,372.936,1023.475,377.82,1023.475z"/>
		<path style="fill:#CBE1FD;" d="M267.914,1023.475h76.954c3.861,0,7.02-3.158,7.02-7.02v-3.723c0-3.861-3.159-7.02-7.02-7.02
			h-76.954c-3.861,0-7.02,3.158-7.02,7.02v3.723C260.895,1020.316,264.053,1023.475,267.914,1023.475z"/>
	</g>
	<g>
		<polygon style="fill:#9EC3F6;" points="1673.144,1047.622 1854.859,1107.033 1746.01,1000.941 1734.96,1026.862 1688.185,1027.09 
					"/>
		<polygon style="fill:#FFFFFF;" points="1854.859,1107.033 1713.828,999.746 1563.147,965.33 		"/>
		<polygon style="fill:#FFFFFF;" points="1746.01,1000.941 1854.859,1107.033 1782.305,958.405 		"/>
	</g>
	<g>
		<polygon style="fill:#9EC3F6;" points="601.6,370.654 431.747,394.883 544.463,318.057 550.195,342.685 591.501,350.167 		"/>
		<polygon style="fill:#FFFFFF;" points="431.747,394.883 573.092,322.009 711.625,315.04 		"/>
		<polygon style="fill:#FFFFFF;" points="544.463,318.057 431.747,394.883 519.004,274.813 		"/>
	</g>
	<path style="fill:#FFFFFF;" d="M868.27,652.453c0,22.159-7.46,42.568-20.03,58.861c-4.168,5.409-8.897,10.361-14.098,14.764
		c-16.815,14.268-38.583,22.865-62.362,22.865c-21.611,0-41.549-7.095-57.633-19.102c-7.095-5.278-13.432-11.524-18.828-18.527
		c-12.569-16.293-20.03-36.702-20.03-58.861c0-53.295,43.195-96.49,96.49-96.49S868.27,599.158,868.27,652.453z"/>
	<path style="fill:#2B478B;" d="M810.548,698.06c-0.26-0.29-0.51-0.56-0.75-0.81c-1.11-0.85-2.22-1.38-6.68-2.15
		c-2.27-0.38-5.42-0.83-9.89-1.41c0,0-0.96-0.11-1.47-0.15c-0.34-0.03-0.7-0.06-1.12-0.1c-1.28-0.67-1.61-5.98-1.6-11.58
		c0-0.42,0.01-0.84,0.01-1.26c0.02-2.12,0.09-4.21,0.17-6.09c0-0.12,0.01-0.23,0.01-0.35c2.76,0.23,4.59,0.21,4.59,0.21
		c5.14-0.41,8.35-14.19,9.5-25.33c0,0,2.54-6.11,2.54-12.72c0-3.72-0.8-7.59-3.3-10.63c-1.3-1.56-2.5-2.59-3.61-3.24
		c-0.32-0.32-0.65-0.61-0.97-0.89c-4.78-5.31-24.22-25.21-36.98-13.7c-0.33-1.15-4.479-14.07-24.6-9.84
		c1.25-0.13,10.17-0.97,12.75,2.64c-0.35-0.15-8.14-3.61-13.05-0.59c-2.27,1.38-3.68,4.25-4.48,7.27c-0.01,0.02-0.01,0.04-0.02,0.06
		c0,0.02-0.01,0.03-0.01,0.05v0.01c-0.01,0.03-0.02,0.06-0.02,0.09c-0.09,0.41-0.19,0.82-0.28,1.23c-0.01,0.06-0.03,0.12-0.04,0.19
		c0,0.02-0.01,0.03-0.01,0.05c0,0.01,0,0.01,0,0.02c-0.6,3.12-0.6,6.15-0.24,7.62c0.75,3.15,6.3,12.53,9.98,12.53
		c1.4,0,2.88-0.46,4.2-1.03c-0.57,1.66-1.08,3.48-1.5,5.46c-3.91,18.39,8.31,32.36,14.64,28.9c4.06-2.21,7.13,4.89,7.13,4.89
		l0.02-0.03c-0.6,13.45-4.29,22.23-7.03,24.42c-0.98,0.11-3.1,0.37-5.75,0.79v-0.01c0,0-9.33,1.02-16.43,4.11
		c-0.06,0.02-0.11,0.04-0.17,0.07c-1.62,0.67-3,1.42-4.03,2.24c-0.01,0.02-0.021,0.03-0.03,0.03v0.01c-0.54,0.42-0.98,0.87-1.3,1.35
		c-0.17,0.2-0.31,0.4-0.42,0.61c-2.37,4.52-4.76,11.31-7.05,19.27c13.64,10.18,30.55,16.2,48.88,16.2
		c20.17,0,38.63-7.29,52.89-19.39C819.788,706.16,813.809,700.53,810.548,698.06z"/>
	<path style="fill:#FFFFFF;" d="M1043.955,603.843H934.347c-3.8,0-6.91-3.109-6.91-6.91v-3.296c0-3.8,3.109-6.91,6.91-6.91h109.608
		c3.8,0,6.91,3.109,6.91,6.91v3.296C1050.865,600.733,1047.755,603.843,1043.955,603.843z"/>
	<g>
		<path style="fill:#FFFFFF;" d="M1045.283,665.366h-112.27c-3.068,0-5.579-2.511-5.579-5.579l0,0c0-3.068,2.511-5.579,5.579-5.579
			h112.27c3.068,0,5.579,2.511,5.579,5.579l0,0C1050.862,662.855,1048.352,665.366,1045.283,665.366z"/>
		<path style="fill:#FFFFFF;" d="M995.583,691.773h-63.875c-2.35,0-4.273-1.923-4.273-4.274v-2.611c0-2.351,1.923-4.273,4.273-4.273
			h63.875c2.351,0,4.273,1.923,4.273,4.273v2.611C999.856,689.85,997.934,691.773,995.583,691.773z"/>
		<path style="fill:#FFFFFF;" d="M1125.763,691.773h-103.215c-2.948,0-5.36-2.412-5.36-5.36v-0.438c0-2.948,2.412-5.36,5.36-5.36
			h103.215c2.948,0,5.36,2.412,5.36,5.36v0.438C1131.124,689.361,1128.711,691.773,1125.763,691.773z"/>
		<path style="fill:#FFFFFF;" d="M1222.196,665.366h-147.208c-3.068,0-5.579-2.511-5.579-5.579l0,0c0-3.068,2.511-5.579,5.579-5.579
			h147.208c3.068,0,5.579,2.511,5.579,5.579l0,0C1227.775,662.855,1225.265,665.366,1222.196,665.366z"/>
		<path style="fill:#FFFFFF;" d="M1045.283,718.18h-112.27c-3.068,0-5.579-2.51-5.579-5.579l0,0c0-3.069,2.511-5.579,5.579-5.579
			h112.27c3.068,0,5.579,2.51,5.579,5.579l0,0C1050.862,715.669,1048.352,718.18,1045.283,718.18z"/>
		<path style="fill:#FFFFFF;" d="M1222.196,718.18h-147.208c-3.068,0-5.579-2.51-5.579-5.579l0,0c0-3.069,2.511-5.579,5.579-5.579
			h147.208c3.068,0,5.579,2.51,5.579,5.579l0,0C1227.775,715.669,1225.265,718.18,1222.196,718.18z"/>
	</g>
	<path style="fill:#FFFFFF;" d="M1150.795,603.843h-78.724c-3.255,0-5.919-2.664-5.919-5.919v-5.278
		c0-3.255,2.664-5.919,5.919-5.919h78.724c3.255,0,5.918,2.664,5.918,5.919v5.278
		C1156.713,601.179,1154.05,603.843,1150.795,603.843z"/>
	<g>
		<path style="fill:#699DEE;" d="M1051.539,1153.472h-77.927c-2.702,0-4.912-2.21-4.912-4.912v-2.343
			c0-2.702,2.211-4.913,4.912-4.913h77.927c2.702,0,4.913,2.211,4.913,4.913v2.343
			C1056.451,1151.262,1054.241,1153.472,1051.539,1153.472z"/>
		<g>
			<path style="fill:#699DEE;" d="M1052.483,1184.625h-79.819c-2.182,0-3.967-1.785-3.967-3.967l0,0
				c0-2.182,1.785-3.966,3.967-3.966h79.819c2.182,0,3.967,1.784,3.967,3.966l0,0
				C1056.45,1182.84,1054.665,1184.625,1052.483,1184.625z"/>
			<path style="fill:#699DEE;" d="M1017.148,1203.399h-45.412c-1.671,0-3.039-1.367-3.039-3.038v-1.856
				c0-1.671,1.367-3.038,3.039-3.038h45.412c1.671,0,3.039,1.367,3.039,3.038v1.856
				C1020.187,1202.032,1018.819,1203.399,1017.148,1203.399z"/>
			<path style="fill:#699DEE;" d="M1109.701,1203.399h-73.382c-2.096,0-3.811-1.715-3.811-3.812v-0.311
				c0-2.096,1.715-3.811,3.811-3.811h73.382c2.096,0,3.811,1.715,3.811,3.811v0.311
				C1113.512,1201.685,1111.797,1203.399,1109.701,1203.399z"/>
			<path style="fill:#699DEE;" d="M1178.262,1184.625h-104.659c-2.182,0-3.967-1.785-3.967-3.967l0,0
				c0-2.182,1.785-3.966,3.967-3.966h104.659c2.182,0,3.966,1.784,3.966,3.966l0,0
				C1182.228,1182.84,1180.443,1184.625,1178.262,1184.625z"/>
			<path style="fill:#699DEE;" d="M1052.483,1222.174h-79.819c-2.182,0-3.967-1.785-3.967-3.967l0,0
				c0-2.182,1.785-3.967,3.967-3.967h79.819c2.182,0,3.967,1.785,3.967,3.967l0,0
				C1056.45,1220.389,1054.665,1222.174,1052.483,1222.174z"/>
			<path style="fill:#699DEE;" d="M1178.262,1222.174h-104.659c-2.182,0-3.967-1.785-3.967-3.967l0,0
				c0-2.182,1.785-3.967,3.967-3.967h104.659c2.182,0,3.966,1.785,3.966,3.967l0,0
				C1182.228,1220.389,1180.443,1222.174,1178.262,1222.174z"/>
		</g>
		<path style="fill:#699DEE;" d="M1127.498,1153.472h-55.969c-2.314,0-4.208-1.894-4.208-4.208v-3.752
			c0-2.314,1.894-4.208,4.208-4.208h55.969c2.314,0,4.208,1.894,4.208,4.208v3.752
			C1131.705,1151.578,1129.812,1153.472,1127.498,1153.472z"/>
	</g>
	<g>
		<path style="fill:#699DEE;" d="M1103.234,395.646h-77.927c-2.702,0-4.912-2.211-4.912-4.913v-2.343
			c0-2.702,2.211-4.912,4.912-4.912h77.927c2.702,0,4.913,2.211,4.913,4.912v2.343
			C1108.146,393.435,1105.936,395.646,1103.234,395.646z"/>
		<g>
			<path style="fill:#699DEE;" d="M1104.179,426.798h-79.819c-2.182,0-3.967-1.785-3.967-3.966l0,0c0-2.182,1.785-3.967,3.967-3.967
				h79.819c2.182,0,3.966,1.785,3.966,3.967l0,0C1108.145,425.013,1106.36,426.798,1104.179,426.798z"/>
			<path style="fill:#699DEE;" d="M1068.844,445.573h-45.413c-1.671,0-3.039-1.367-3.039-3.039v-1.856
				c0-1.671,1.367-3.039,3.039-3.039h45.413c1.671,0,3.038,1.367,3.038,3.039v1.856
				C1071.882,444.206,1070.515,445.573,1068.844,445.573z"/>
			<path style="fill:#699DEE;" d="M1161.396,445.573h-73.382c-2.096,0-3.811-1.715-3.811-3.811v-0.311
				c0-2.096,1.715-3.811,3.811-3.811h73.382c2.096,0,3.811,1.715,3.811,3.811v0.311
				C1165.207,443.858,1163.492,445.573,1161.396,445.573z"/>
			<path style="fill:#699DEE;" d="M1229.957,426.798h-104.659c-2.182,0-3.967-1.785-3.967-3.966l0,0
				c0-2.182,1.785-3.967,3.967-3.967h104.659c2.182,0,3.966,1.785,3.966,3.967l0,0
				C1233.923,425.013,1232.139,426.798,1229.957,426.798z"/>
		</g>
		<path style="fill:#699DEE;" d="M1179.193,395.646h-55.97c-2.314,0-4.208-1.893-4.208-4.208v-3.752
			c0-2.314,1.894-4.208,4.208-4.208h55.97c2.313,0,4.207,1.893,4.207,4.208v3.752C1183.4,393.752,1181.507,395.646,1179.193,395.646
			z"/>
	</g>
	<g>
		<path style="fill:#ED7D2B;" d="M1172.115,921.86H1086.8c-2.958,0-5.378-2.42-5.378-5.379v-2.565c0-2.958,2.42-5.378,5.378-5.378
			h85.315c2.958,0,5.378,2.42,5.378,5.378v2.565C1177.493,919.44,1175.073,921.86,1172.115,921.86z"/>
		<g>
			<path style="fill:#ED7D2B;" d="M1173.148,955.966h-87.386c-2.388,0-4.342-1.954-4.342-4.342l0,0c0-2.388,1.954-4.342,4.342-4.342
				h87.386c2.389,0,4.343,1.954,4.343,4.342l0,0C1177.491,954.012,1175.537,955.966,1173.148,955.966z"/>
			<path style="fill:#ED7D2B;" d="M1134.464,976.52h-49.717c-1.83,0-3.326-1.497-3.326-3.326v-2.032c0-1.83,1.497-3.327,3.326-3.327
				h49.717c1.83,0,3.327,1.497,3.327,3.327v2.032C1137.791,975.023,1136.293,976.52,1134.464,976.52z"/>
			<path style="fill:#ED7D2B;" d="M1235.791,976.52h-80.338c-2.295,0-4.173-1.877-4.173-4.172v-0.341
				c0-2.294,1.878-4.172,4.173-4.172h80.338c2.295,0,4.172,1.878,4.172,4.172v0.341
				C1239.963,974.643,1238.086,976.52,1235.791,976.52z"/>
			<path style="fill:#ED7D2B;" d="M1310.851,955.966h-114.58c-2.389,0-4.343-1.954-4.343-4.342l0,0c0-2.388,1.954-4.342,4.343-4.342
				h114.58c2.389,0,4.343,1.954,4.343,4.342l0,0C1315.193,954.012,1313.239,955.966,1310.851,955.966z"/>
			<path style="fill:#ED7D2B;" d="M1173.148,997.074h-87.386c-2.388,0-4.342-1.954-4.342-4.342l0,0c0-2.389,1.954-4.343,4.342-4.343
				h87.386c2.389,0,4.343,1.954,4.343,4.343l0,0C1177.491,995.12,1175.537,997.074,1173.148,997.074z"/>
			<path style="fill:#ED7D2B;" d="M1310.851,997.074h-114.58c-2.389,0-4.343-1.954-4.343-4.342l0,0c0-2.389,1.954-4.343,4.343-4.343
				h114.58c2.389,0,4.343,1.954,4.343,4.343l0,0C1315.193,995.12,1313.239,997.074,1310.851,997.074z"/>
		</g>
		<g>
			<path style="fill:#ED7D2B;" d="M1173.148,1018.47h-87.386c-2.388,0-4.342-1.954-4.342-4.342l0,0c0-2.389,1.954-4.343,4.342-4.343
				h87.386c2.389,0,4.343,1.954,4.343,4.343l0,0C1177.491,1016.516,1175.537,1018.47,1173.148,1018.47z"/>
			<path style="fill:#ED7D2B;" d="M1310.851,1018.47h-114.58c-2.389,0-4.343-1.954-4.343-4.342l0,0c0-2.389,1.954-4.343,4.343-4.343
				h114.58c2.389,0,4.343,1.954,4.343,4.343l0,0C1315.193,1016.516,1313.239,1018.47,1310.851,1018.47z"/>
		</g>
		<path style="fill:#ED7D2B;" d="M1255.274,921.86h-61.275c-2.534,0-4.606-2.073-4.606-4.607v-4.108
			c0-2.534,2.072-4.607,4.606-4.607h61.275c2.534,0,4.606,2.073,4.606,4.607v4.108
			C1259.881,919.787,1257.809,921.86,1255.274,921.86z"/>
	</g>
	<g>
		<path style="fill:#FFFFFF;" d="M970.019,332.341l-5.929,4.254l-5.959-4.208c1.321-1.858,3.502-3.087,5.959-3.087
			C966.533,329.3,968.698,330.498,970.019,332.341z"/>
		<g>
			<path style="fill:#FFFFFF;" d="M964.088,318.93c-5.96,0-11.23,2.97-14.42,7.5l3.76,2.64c2.37-3.35,6.27-5.53,10.66-5.53
				c4.36,0,8.24,2.15,10.6,5.45l3.75-2.69C975.228,321.83,969.988,318.93,964.088,318.93z"/>
		</g>
		<g>
			<path style="fill:#FFFFFF;" d="M964.088,299.22c-12.61,0-23.76,6.27-30.52,15.86l3.77,2.64c5.92-8.39,15.71-13.89,26.75-13.89
				c10.95,0,20.68,5.41,26.62,13.69l3.73-2.69C987.668,305.38,976.598,299.22,964.088,299.22z"/>
		</g>
		<g>
			<path style="fill:#FFFFFF;" d="M964.088,310.01c-8.97,0-16.92,4.44-21.76,11.24l3.76,2.64c4.01-5.6,10.58-9.27,18-9.27
				c7.36,0,13.89,3.61,17.91,9.13l3.73-2.67C980.878,314.37,972.988,310.01,964.088,310.01z"/>
		</g>
	</g>
	<path style="fill:#FFFFFF;" d="M930.801,960.382c0,8.707,2.929,16.719,7.866,23.115c1.638,2.132,3.501,4.073,5.543,5.801
		c2.031,1.728,4.241,3.232,6.598,4.499c5.33,2.861,11.412,4.488,17.886,4.488c8.09,0,15.574-2.536,21.724-6.845
		c0.313-0.213,0.617-0.438,0.92-0.662c2.783-2.076,5.273-4.522,7.395-7.282c4.937-6.396,7.865-14.408,7.865-23.115
		c0-20.927-16.965-37.892-37.903-37.892C947.767,922.489,930.801,939.455,930.801,960.382z"/>
	<path style="fill:#699DEE;" d="M978.958,984.69l-3.49-3.09c-0.29,0.06-0.58,0.11-0.87,0.16c-0.63-0.44-1.32-0.87-2.039-1.27
		c0.229-1.41,0.42-2.72,0.58-3.88c0.53-4.06,0.59-6.51,0.59-6.89c1.85-0.09,3.1-0.29,3.1-0.29c3.5-0.81,3.67-12.76,2.86-18.99
		c0.66,0.01,1.3-0.08,1.95-0.37c2.65-1.17,2.8-5.18,2.8-5.18s-0.77,1.43-1.9,1.89c0,0,4.43-6.07-0.71-10.22
		c-5.12-4.16-10.35-1.44-13.33-1.26c-6.54,0.4-10.77,0.79-12.9,5.09c-2.11,4.24-1.28,15.9,2.76,20.19c0.07,0.4,0.14,0.79,0.19,1.19
		c0.24,1.54,0.8,2.8,1.6,3.81c-0.91,5.02-2.98,8.77-4.84,11.26c-1.26,0.98-2.41,2.24-3.481,3.75c-0.03,0.02-0.07,0.05-0.07,0.05
		s0.01,0,0.03,0.01c-1.97,2.8-3.59,6.45-4.89,10.73c-0.01,0.02-0.01,0.04-0.02,0.06c2.14,1.51,4.46,2.78,6.91,3.8
		c0.16,0.07,0.32,0.13,0.48,0.2c0.04,0.01,0.07,0.03,0.11,0.04c0.26,0.11,0.53,0.21,0.79,0.31c0.641,0.25,1.28,0.48,1.93,0.69
		c0.68,0.22,1.37,0.42,2.06,0.6c0.32,0.08,0.64,0.16,0.96,0.23c0.28,0.07,0.56,0.13,0.85,0.18c0.04,0.01,0.08,0.02,0.12,0.03
		c0.19,0.04,0.38,0.07,0.57,0.11c0.44,0.08,0.89,0.16,1.34,0.23c0.1,0.01,0.21,0.03,0.311,0.04c0.25,0.04,0.49,0.07,0.74,0.1
		c0.35,0.04,0.7,0.08,1.05,0.12c0.39,0.04,0.79,0.07,1.19,0.09c0.37,0.03,0.75,0.05,1.13,0.06c0.391,0.01,0.79,0.02,1.19,0.02
		c0.43,0,0.85-0.01,1.28-0.02c0.04,0,0.07,0,0.11-0.01c0.1,0,0.21,0,0.311-0.01c0.21,0,0.42-0.01,0.63-0.03
		c0.03-0.01,0.05-0.01,0.08-0.01c0.399-0.02,0.79-0.05,1.189-0.09c5.12-0.48,9.95-2,14.28-4.32
		C984.288,990.03,981.548,987.09,978.958,984.69z"/>
	<path style="fill:#FFFFFF;" d="M1302.885,1180.658c0,8.763,2.95,16.833,7.92,23.275c1.648,2.139,3.519,4.097,5.574,5.838
		c6.649,5.642,15.257,9.041,24.66,9.041c8.545,0,16.43-2.805,22.789-7.553c2.806-2.088,5.312-4.557,7.445-7.326
		c4.97-6.442,7.92-14.513,7.92-23.275c0-21.074-17.08-38.154-38.154-38.154S1302.885,1159.584,1302.885,1180.658z"/>
	<path style="fill:#F99746;" d="M1360.538,1202.28c-0.05-0.101-0.109-0.2-0.189-0.29c-0.15-0.221-0.36-0.43-0.61-0.63l-0.01-0.011
		c-0.48-0.39-1.13-0.739-1.88-1.05c-0.03-0.01-0.05-0.02-0.08-0.03c-3.311-1.449-7.66-1.92-7.66-1.92
		c-1.24-0.189-2.22-0.31-2.68-0.359c-1.28-1.03-3-5.12-3.28-11.391l0.01,0.021c0,0,1.43-3.32,3.32-2.28
		c2.95,1.61,8.649-4.91,6.83-13.479c-0.2-0.921-0.44-1.771-0.7-2.54c0.62,0.26,1.31,0.479,1.96,0.479c1.71,0,4.3-4.38,4.65-5.85
		c0.359-1.47-0.03-6.3-2.381-7.73c-2.289-1.409-5.92,0.21-6.08,0.271c1.171-1.641,5.171-1.311,5.9-1.23
		c-9.34-1.939-11.27,4.051-11.43,4.59c-5.94-5.369-15.01,3.91-17.24,6.391c-0.15,0.13-0.3,0.27-0.45,0.42
		c-0.51,0.29-1.08,0.779-1.68,1.5c-1.17,1.42-1.54,3.229-1.54,4.96c0,3.08,1.18,5.93,1.18,5.93c0.54,5.19,2.04,11.62,4.44,11.811
		c0,0,0.85,0.01,2.13-0.101c0,0.061,0.01,0.11,0.01,0.17c0.04,0.87,0.07,1.851,0.08,2.83v0.59c0.01,2.61-0.15,5.09-0.74,5.4
		c-0.199,0.02-0.369,0.03-0.52,0.05c-0.24,0.011-0.69,0.07-0.69,0.07c-2.079,0.27-3.56,0.479-4.609,0.66
		c-2.08,0.35-2.601,0.6-3.11,1c-0.12,0.109-0.24,0.239-0.36,0.38c-1.52,1.15-4.31,3.77-6.75,8.859
		c6.65,5.641,15.261,9.041,24.66,9.041c8.55,0,16.431-2.801,22.79-7.551C1362.758,1207.55,1361.648,1204.38,1360.538,1202.28z"/>
	<path style="fill:#FFFFFF;" d="M1302.885,413.792c0,8.762,2.95,16.833,7.92,23.275c1.648,2.139,3.519,4.097,5.574,5.838
		c6.649,5.642,15.257,9.041,24.66,9.041c8.545,0,16.43-2.805,22.789-7.553c2.806-2.087,5.312-4.557,7.445-7.326
		c4.97-6.442,7.92-14.513,7.92-23.275c0-21.074-17.08-38.154-38.154-38.154S1302.885,392.718,1302.885,413.792z"/>
	<path style="fill:#F99746;" d="M1360.538,435.41c-0.05-0.1-0.109-0.19-0.189-0.29c-0.15-0.22-0.36-0.43-0.61-0.63l-0.01-0.01
		c-0.48-0.38-1.13-0.73-1.88-1.05c-0.03-0.01-0.05-0.02-0.08-0.03c-3.311-1.44-7.66-1.92-7.66-1.92v0.01
		c-1.24-0.2-2.22-0.32-2.68-0.37c-0.311-0.25-0.641-0.66-0.971-1.25v-0.01c-1.06-1.86-2.1-5.36-2.31-10.13l0.01,0.02
		c0,0,1.43-3.31,3.32-2.28c2.95,1.61,8.649-4.9,6.83-13.47c-0.2-0.93-0.44-1.78-0.7-2.55c0.62,0.26,1.31,0.48,1.96,0.48
		c1.71,0,4.3-4.38,4.65-5.84c0.359-1.48-0.03-6.31-2.381-7.74c-2.289-1.4-5.92,0.21-6.08,0.28c1.171-1.64,5.181-1.31,5.9-1.24
		c-9.34-1.94-11.27,4.06-11.43,4.59c-5.94-5.36-15.01,3.92-17.24,6.39c-0.15,0.13-0.3,0.27-0.45,0.42c-0.51,0.3-1.08,0.78-1.68,1.51
		c-1.17,1.41-1.54,3.22-1.54,4.95c0,3.09,1.18,5.93,1.18,5.93c0.54,5.2,2.04,11.62,4.44,11.81c0,0,0.85,0.01,2.13-0.09
		c0,0.05,0.01,0.1,0.01,0.16c0.04,0.87,0.07,1.85,0.08,2.84v0.59c0.01,2.61-0.15,5.08-0.74,5.4c-0.199,0.01-0.369,0.03-0.52,0.04
		c-0.24,0.02-0.69,0.07-0.69,0.07c-2.079,0.27-3.56,0.48-4.609,0.66c-2.08,0.36-2.601,0.6-3.11,1c-0.12,0.12-0.24,0.25-0.36,0.38
		c-1.52,1.15-4.31,3.78-6.75,8.87c0.36,0.31,0.73,0.61,1.11,0.9c0.061,0.05,0.13,0.1,0.189,0.15c0.28,0.22,0.561,0.43,0.851,0.63
		c0.2,0.16,0.399,0.31,0.61,0.45c0.21,0.15,0.42,0.29,0.63,0.42c0.3,0.22,0.609,0.42,0.93,0.61c0.21,0.14,0.42,0.27,0.64,0.4
		c0.261,0.16,0.53,0.32,0.801,0.47c0.3,0.17,0.6,0.34,0.899,0.5c0.03,0.01,0.05,0.03,0.08,0.04c0.01,0.01,0.03,0.02,0.05,0.03h0.01
		c0.041,0.02,0.091,0.05,0.131,0.07c0.24,0.13,0.479,0.25,0.72,0.37c0.021,0,0.03,0.01,0.05,0.02c0.07,0.04,0.15,0.08,0.221,0.11
		c0.129,0.07,0.27,0.14,0.409,0.2c0.13,0.06,0.261,0.12,0.4,0.19c0.3,0.14,0.62,0.28,0.93,0.41c0.311,0.13,0.63,0.26,0.94,0.38
		c0.149,0.06,0.29,0.12,0.43,0.17c0.141,0.05,0.28,0.11,0.43,0.16c0.291,0.11,0.591,0.21,0.881,0.31c0.31,0.11,0.609,0.2,0.92,0.3
		c0.26,0.08,0.52,0.16,0.779,0.24c0.03,0.01,0.051,0.01,0.08,0.02c0.16,0.05,0.33,0.1,0.5,0.14c0.91,0.25,1.84,0.47,2.78,0.65
		c0.41,0.08,0.82,0.16,1.229,0.22c0.11,0.02,0.211,0.04,0.32,0.05c0.021,0,0.051,0.01,0.07,0.01c0.01,0,0.03,0,0.04,0.01
		c0.27,0.04,0.52,0.07,0.8,0.1c0.061,0.01,0.11,0.02,0.17,0.02c0.04,0.01,0.08,0.01,0.12,0.02c0.25,0.04,0.5,0.06,0.74,0.08
		c0.04,0,0.09,0.01,0.13,0.01c0.07,0.01,0.15,0.02,0.23,0.03c0.449,0.04,0.89,0.07,1.34,0.09h0.069c0.141,0.01,0.271,0.02,0.42,0.02
		c0.091,0,0.171,0.01,0.261,0.01c0.439,0.02,0.88,0.03,1.319,0.03c8.55,0,16.431-2.81,22.79-7.56
		C1362.758,440.68,1361.648,437.52,1360.538,435.41z"/>
	<path style="fill:#EFA26F;" d="M1820.668,1928.85l-137.43,71.15h-91.49c-22.06-14.79-136.63-92.939-184.04-151.2
		c-10.04-12.35-46.79-118.75-75.029-205.14v-0.04c3.75,11.47,82.56,179.319,105,198.399c22.439,19.07,140.26,130.16,172.8,129.03
		c31.52-1.08,199.32-39.7,209.72-42.09C1820.358,1928.93,1820.508,1928.89,1820.668,1928.85z"/>
	<path style="fill:#D2E3FC;" d="M2097.188,2000h-495.46c24.85-9.75,119.92-46.07,218.47-71.04c0.16-0.03,0.31-0.07,0.47-0.11
		c84.641-21.41,171.771-34.39,219.09-14.92l0.341,0.51L2097.188,2000z"/>
	<path style="fill:#EFA26F;" d="M1298.982,1345.566c0.012,0,0.022,0,0.033-0.012c8.349-3.063,20.074-5.082,25.774,4.444
		c8.876,14.822-24.102,145.577-28.22,162.026L1298.982,1345.566z"/>
	<path style="fill:#FFC197;" d="M1301.541,1275.262l-2.835,79.089c0,0,16.63,2.706,26.086-4.352
		S1329.241,1274.333,1301.541,1275.262z"/>
	<path style="fill:#CBE1FD;" d="M968.701,1733.264c-47.609,9.763-150.223-27.637-150.223-27.637l16.55-159.861l-115.955,132.798
		c-59.01-21.959-151.3-79.264-206.135-114.923c140.517-15.316,245.43-153.993,245.43-153.993
		c97.407,52.76,207.358,83.583,207.358,83.583C965.694,1588.236,968.701,1733.264,968.701,1733.264z"/>
	<path style="fill:#F99746;" d="M641.986,1588.063c0.099-10.659,8.819-19.221,19.479-19.122c10.659,0.099,19.22,8.819,19.121,19.479
		c-0.099,10.659-8.819,19.22-19.478,19.121C650.449,1607.441,641.888,1598.721,641.986,1588.063z"/>
</g>
</svg>
